<svg width="1600" height="900" viewBox="0 0 1600 900" fill="none" xmlns="http://www.w3.org/2000/svg">
  <defs>
    <linearGradient id="bg" x1="0" y1="0" x2="1600" y2="900" gradientUnits="userSpaceOnUse">
      <stop stop-color="#090E1A"/>
      <stop offset="1" stop-color="#13121F"/>
    </linearGradient>
    <radialGradient id="glow" cx="0" cy="0" r="1" gradientUnits="userSpaceOnUse" gradientTransform="translate(1310 160) rotate(135) scale(590 450)">
      <stop stop-color="#C084FC" stop-opacity="0.24"/>
      <stop offset="1" stop-color="#C084FC" stop-opacity="0"/>
    </radialGradient>
  </defs>
  <rect width="1600" height="900" rx="44" fill="url(#bg)"/>
  <rect width="1600" height="900" rx="44" fill="url(#glow)"/>
  <rect x="72" y="72" width="1456" height="756" rx="32" fill="rgba(15,23,42,0.54)" stroke="rgba(192,132,252,0.2)"/>
  <text x="112" y="180" fill="#D8B4FE" font-family="Inter, Arial, sans-serif" font-size="26" font-weight="700" letter-spacing="6">ARCHAEOLOGY × PRODUCT ENGINEERING</text>
  <text x="112" y="318" fill="#F8FAFC" font-family="Inter, Arial, sans-serif" font-size="86" font-weight="700">Lithodomos Ancient World</text>
  <text x="112" y="396" fill="#CBD5E1" font-family="Inter, Arial, sans-serif" font-size="36">Visual richness without losing clarity.</text>
  <rect x="112" y="500" width="320" height="184" rx="26" fill="rgba(15,23,42,0.88)" stroke="rgba(148,163,184,0.16)"/>
  <text x="144" y="560" fill="#D8B4FE" font-family="Inter, Arial, sans-serif" font-size="22" font-weight="700">Constraint</text>
  <text x="144" y="610" fill="#E2E8F0" font-family="Inter, Arial, sans-serif" font-size="30">Educational clarity</text>
  <rect x="470" y="500" width="320" height="184" rx="26" fill="rgba(15,23,42,0.88)" stroke="rgba(148,163,184,0.16)"/>
  <text x="502" y="560" fill="#D8B4FE" font-family="Inter, Arial, sans-serif" font-size="22" font-weight="700">Role</text>
  <text x="502" y="610" fill="#E2E8F0" font-family="Inter, Arial, sans-serif" font-size="30">Front-end robustness</text>
  <path d="M1190 576C1210 446 1276 364 1376 302C1431 348 1466 428 1482 536C1384 592 1286 607 1190 576Z" fill="rgba(216,180,254,0.16)" stroke="rgba(216,180,254,0.4)" stroke-width="4"/>
  <path d="M1254 558C1273 470 1316 408 1384 364C1421 398 1447 455 1458 525C1395 564 1328 576 1254 558Z" fill="rgba(248,250,252,0.06)" stroke="rgba(226,232,240,0.18)" stroke-width="3"/>
</svg>